<?xml version="1.0" encoding="UTF-8" ?>
<svg version="1.1" width="150" height="140" xmlns="http://www.w3.org/2000/svg" shape-rendering="crispEdges">
<rect x="50" y="0" width="50" height="10" fill="#FFFFFF" />
<rect x="30" y="10" width="20" height="10" fill="#FFFFFF" />
<rect x="100" y="10" width="20" height="10" fill="#FFFFFF" />
<rect x="20" y="20" width="10" height="10" fill="#FFFFFF" />
<rect x="120" y="20" width="10" height="10" fill="#FFFFFF" />
<rect x="10" y="30" width="10" height="10" fill="#FFFFFF" />
<rect x="70" y="30" width="10" height="10" fill="#FFFFFF" />
<rect x="130" y="30" width="10" height="10" fill="#FFFFFF" />
<rect x="0" y="40" width="10" height="40" fill="#FFFFFF" />
<rect x="140" y="40" width="10" height="50" fill="#FFFFFF" />
<rect x="70" y="50" width="10" height="40" fill="#FFFFFF" />
<rect x="10" y="80" width="10" height="10" fill="#FFFFFF" />
<rect x="20" y="90" width="10" height="10" fill="#FFFFFF" />
<rect x="130" y="90" width="10" height="10" fill="#FFFFFF" />
<rect x="30" y="100" width="20" height="10" fill="#FFFFFF" />
<rect x="120" y="100" width="10" height="10" fill="#FFFFFF" />
<rect x="30" y="110" width="10" height="10" fill="#FFFFFF" />
<rect x="100" y="110" width="20" height="10" fill="#FFFFFF" />
<rect x="20" y="120" width="10" height="20" fill="#FFFFFF" />
<rect x="80" y="120" width="20" height="10" fill="#FFFFFF" />
<rect x="30" y="130" width="50" height="10" fill="#FFFFFF" />
</svg>